<?xml version="1.0" encoding="UTF-8"?>
<!DOCTYPE svg PUBLIC "-//W3C//DTD SVG 1.1//EN" "http://www.w3.org/Graphics/SVG/1.1/DTD/svg11.dtd">
<svg xmlns="http://www.w3.org/2000/svg" version="1.1" width="177px" height="172px" style="shape-rendering:geometricPrecision; text-rendering:geometricPrecision; image-rendering:optimizeQuality; fill-rule:evenodd; clip-rule:evenodd" xmlns:xlink="http://www.w3.org/1999/xlink">
<g><path style="opacity:1" fill="#000b12" d="M -0.5,-0.5 C 26.8333,-0.5 54.1667,-0.5 81.5,-0.5C 79.9192,1.14166 79.2525,3.14166 79.5,5.5C 74.7952,5.03476 70.2952,5.70143 66,7.5C 64.4523,6.31598 62.9523,6.48265 61.5,8C 63.9574,9.15439 63.9574,10.4877 61.5,12C 57.4791,12.8025 53.6458,13.9692 50,15.5C 49.3333,14.1667 48.6667,12.8333 48,11.5C 47.0975,12.7014 45.9308,13.5348 44.5,14C 45.5,14.8333 46.5,15.6667 47.5,16.5C 44.9141,18.4464 42.5808,18.4464 40.5,16.5C 41.8408,14.1658 41.1741,12.4991 38.5,11.5C 34.4307,13.7814 34.7641,15.1147 39.5,15.5C 39.7135,17.1439 39.3802,18.6439 38.5,20C 36.4787,20.1402 34.6453,20.3068 33,20.5C 30.5969,17.6345 29.7636,17.8012 30.5,21C 29.0621,22.5686 27.5621,24.0686 26,25.5C 25.6667,24.8333 25.3333,24.1667 25,23.5C 23.9326,24.1905 22.7659,24.6905 21.5,25C 19.0339,27.844 16.5339,30.0106 14,31.5C 13.6667,31.1667 13.3333,30.8333 13,30.5C 8.95182,31.679 4.95182,33.0123 1,34.5C 0.617425,33.944 0.117425,33.6107 -0.5,33.5C -0.5,22.1667 -0.5,10.8333 -0.5,-0.5 Z"/></g>
<g><path style="opacity:1" fill="#00060c" d="M 81.5,-0.5 C 103.833,-0.5 126.167,-0.5 148.5,-0.5C 148.539,0.583168 148.873,1.58317 149.5,2.5C 148.469,3.70034 147.635,5.03368 147,6.5C 146.517,5.55198 146.351,4.55198 146.5,3.5C 144.633,3.95496 142.8,4.62162 141,5.5C 138.214,3.75772 136.047,4.25772 134.5,7C 133.207,7.49001 131.873,7.65668 130.5,7.5C 130.662,9.5273 130.495,11.5273 130,13.5C 129.503,10.854 129.336,8.1873 129.5,5.5C 126.728,6.23453 124.061,6.4012 121.5,6C 122.833,7 122.833,8 121.5,9C 118.56,10.1524 115.56,11.1524 112.5,12C 109.581,13.7539 107.581,16.2539 106.5,19.5C 104.568,18.8545 103.401,17.5212 103,15.5C 102.667,16.1667 102.333,16.8333 102,17.5C 100.445,15.4848 98.6114,15.1515 96.5,16.5C 97.1096,21.1093 97.1096,25.776 96.5,30.5C 97.552,30.3505 98.552,30.5172 99.5,31C 98.5831,34.9588 98.4165,38.7921 99,42.5C 100.422,42.5943 101.922,42.9276 103.5,43.5C 102.723,45.5385 101.557,46.2052 100,45.5C 99.3109,46.3567 98.4776,47.0233 97.5,47.5C 96.8333,45.1667 96.1667,42.8333 95.5,40.5C 92.9514,41.7504 91.618,43.7504 91.5,46.5C 92.552,46.3505 93.552,46.5172 94.5,47C 92.8876,47.7203 91.3876,47.5536 90,46.5C 89.3333,44.1667 89.3333,41.8333 90,39.5C 92.2196,37.2808 94.0529,34.7808 95.5,32C 94.0361,30.136 93.0361,27.9694 92.5,25.5C 89.9453,28.2508 88.9453,27.5841 89.5,23.5C 90.8333,23.5 92.1667,23.5 93.5,23.5C 93.5,20.8333 93.5,18.1667 93.5,15.5C 89.8458,15.7512 87.6791,17.7512 87,21.5C 83.89,17.194 83.0566,17.5274 84.5,22.5C 83.5,23.3333 82.5,24.1667 81.5,25C 82.549,25.4922 83.549,25.3256 84.5,24.5C 84.9106,25.2624 85.0773,26.2624 85,27.5C 85.9138,26.3463 86.7471,26.513 87.5,28C 86.2068,28.49 84.8734,28.6567 83.5,28.5C 64.5289,26.5124 45.1955,25.8457 25.5,26.5C 25.2627,27.791 25.596,28.791 26.5,29.5C 36.1962,29.8633 41.8629,34.8633 43.5,44.5C 43.5858,45.4959 43.2524,46.3292 42.5,47C 44.5689,47.3242 44.9023,48.1575 43.5,49.5C 43.9767,50.4776 44.6433,51.3109 45.5,52C 44.1667,53 44.1667,54 45.5,55C 45.1945,56.8273 43.6945,57.994 41,58.5C 40.586,58.0426 40.086,57.7093 39.5,57.5C 38.5713,58.6888 38.238,60.0222 38.5,61.5C 37.325,61.719 36.325,61.3857 35.5,60.5C 36.1005,58.2753 36.4339,56.1086 36.5,54C 32.4232,51.6409 32.7566,50.1409 37.5,49.5C 37.6495,48.448 37.4828,47.448 37,46.5C 35.3005,47.4061 33.4672,47.7394 31.5,47.5C 31.6621,49.5273 31.4955,51.5273 31,53.5C 29.47,52.0798 27.6367,51.0798 25.5,50.5C 26.6405,49.5745 26.6405,48.7412 25.5,48C 24.1667,47.3333 22.8333,47.3333 21.5,48C 25.3642,49.55 25.3642,51.05 21.5,52.5C 22.09,53.7989 23.09,54.6322 24.5,55C 19.1134,54.7204 14.7801,56.7204 11.5,61C 14.5145,62.1057 17.5145,63.2724 20.5,64.5C 19.6034,64.6691 18.6034,65.0024 17.5,65.5C 16.3906,67.3853 15.5573,69.3853 15,71.5C 14.5026,68.854 14.3359,66.1873 14.5,63.5C 12.5,63.5 10.5,63.5 8.5,63.5C 9.4249,68.3952 7.75823,71.8952 3.5,74C 4.02186,74.5613 4.3552,75.228 4.5,76C 3.52791,78.1113 2.69458,80.2779 2,82.5C 1.2917,81.6195 0.458367,80.9528 -0.5,80.5C -0.5,64.8333 -0.5,49.1667 -0.5,33.5C 0.117425,33.6107 0.617425,33.944 1,34.5C 4.95182,33.0123 8.95182,31.679 13,30.5C 13.3333,30.8333 13.6667,31.1667 14,31.5C 16.5339,30.0106 19.0339,27.844 21.5,25C 22.7659,24.6905 23.9326,24.1905 25,23.5C 25.3333,24.1667 25.6667,24.8333 26,25.5C 27.5621,24.0686 29.0621,22.5686 30.5,21C 29.7636,17.8012 30.5969,17.6345 33,20.5C 34.6453,20.3068 36.4787,20.1402 38.5,20C 39.3802,18.6439 39.7135,17.1439 39.5,15.5C 34.7641,15.1147 34.4307,13.7814 38.5,11.5C 41.1741,12.4991 41.8408,14.1658 40.5,16.5C 42.5808,18.4464 44.9141,18.4464 47.5,16.5C 46.5,15.6667 45.5,14.8333 44.5,14C 45.9308,13.5348 47.0975,12.7014 48,11.5C 48.6667,12.8333 49.3333,14.1667 50,15.5C 53.6458,13.9692 57.4791,12.8025 61.5,12C 63.9574,10.4877 63.9574,9.15439 61.5,8C 62.9523,6.48265 64.4523,6.31598 66,7.5C 70.2952,5.70143 74.7952,5.03476 79.5,5.5C 79.2525,3.14166 79.9192,1.14166 81.5,-0.5 Z"/></g>
<g><path style="opacity:1" fill="#010d13" d="M 148.5,-0.5 C 157.833,-0.5 167.167,-0.5 176.5,-0.5C 176.5,6.5 176.5,13.5 176.5,20.5C 174.589,20.4257 173.422,19.4257 173,17.5C 171.727,19.5719 169.893,20.9052 167.5,21.5C 166.201,20.91 165.368,19.91 165,18.5C 163.916,19.6651 163.083,20.9984 162.5,22.5C 163.603,22.9976 164.603,23.3309 165.5,23.5C 164.174,25.9349 162.84,28.2682 161.5,30.5C 160.702,28.9223 160.202,27.2556 160,25.5C 159.111,26.8882 158.611,26.7215 158.5,25C 159.289,24.4536 160.289,23.7869 161.5,23C 159.552,22.0168 157.718,20.8502 156,19.5C 152.762,19.41 149.428,19.7434 146,20.5C 145.219,19.0563 145.386,17.723 146.5,16.5C 147.086,16.7093 147.586,17.0426 148,17.5C 150.485,16.0126 152.652,14.1792 154.5,12C 151.464,12.8568 150.798,11.6901 152.5,8.5C 152.167,7.5 151.5,6.83333 150.5,6.5C 151.05,9.84268 149.883,12.8427 147,15.5C 144.647,13.0474 145.147,11.3807 148.5,10.5C 147.282,10.891 146.448,10.2244 146,8.5C 144.29,12.2189 141.79,15.3856 138.5,18C 137.256,18.4561 136.423,17.9561 136,16.5C 133.171,18.7617 133.004,21.095 135.5,23.5C 136.524,22.1468 137.857,21.4802 139.5,21.5C 140.145,16.6574 141.145,16.4908 142.5,21C 142.355,21.772 142.022,22.4387 141.5,23C 143.734,24.585 146.067,25.7516 148.5,26.5C 139.167,26.5 129.833,26.5 120.5,26.5C 120.263,27.791 120.596,28.791 121.5,29.5C 131.353,29.8408 134.853,34.8408 132,44.5C 131.76,46.8516 130.927,48.8516 129.5,50.5C 129.411,47.2914 129.744,44.1248 130.5,41C 129.365,38.5177 128.199,36.0177 127,33.5C 126.667,33.1667 126.333,32.8333 126,32.5C 125.667,33.5 125.333,34.5 125,35.5C 124.34,31.6555 122.007,29.6555 118,29.5C 116.018,30.7214 114.518,32.3881 113.5,34.5C 111.881,30.4626 109.547,29.796 106.5,32.5C 105.065,33.9285 104.065,35.5952 103.5,37.5C 103.833,38.1667 104.167,38.8333 104.5,39.5C 105.451,38.6744 106.451,38.5078 107.5,39C 107.08,41.8227 106.747,44.656 106.5,47.5C 103.281,49.8942 99.9475,52.0608 96.5,54C 97.3279,54.9147 98.3279,55.5814 99.5,56C 97.1023,57.0181 94.769,58.1847 92.5,59.5C 90.6329,56.7709 89.6329,57.1043 89.5,60.5C 87.8762,60.6399 86.7096,59.9733 86,58.5C 84.2933,59.1383 82.46,59.1383 80.5,58.5C 75.8539,49.9297 73.5205,40.9297 73.5,31.5C 76.2457,29.8736 79.2457,29.2069 82.5,29.5C 83.1667,29.5 83.5,29.1667 83.5,28.5C 84.8734,28.6567 86.2068,28.49 87.5,28C 86.7471,26.513 85.9138,26.3463 85,27.5C 85.0773,26.2624 84.9106,25.2624 84.5,24.5C 83.549,25.3256 82.549,25.4922 81.5,25C 82.5,24.1667 83.5,23.3333 84.5,22.5C 83.0566,17.5274 83.89,17.194 87,21.5C 87.6791,17.7512 89.8458,15.7512 93.5,15.5C 93.5,18.1667 93.5,20.8333 93.5,23.5C 92.1667,23.5 90.8333,23.5 89.5,23.5C 88.9453,27.5841 89.9453,28.2508 92.5,25.5C 93.0361,27.9694 94.0361,30.136 95.5,32C 94.0529,34.7808 92.2196,37.2808 90,39.5C 89.3333,41.8333 89.3333,44.1667 90,46.5C 91.3876,47.5536 92.8876,47.7203 94.5,47C 93.552,46.5172 92.552,46.3505 91.5,46.5C 91.618,43.7504 92.9514,41.7504 95.5,40.5C 96.1667,42.8333 96.8333,45.1667 97.5,47.5C 98.4776,47.0233 99.3109,46.3567 100,45.5C 101.557,46.2052 102.723,45.5385 103.5,43.5C 101.922,42.9276 100.422,42.5943 99,42.5C 98.4165,38.7921 98.5831,34.9588 99.5,31C 98.552,30.5172 97.552,30.3505 96.5,30.5C 97.1096,25.776 97.1096,21.1093 96.5,16.5C 98.6114,15.1515 100.445,15.4848 102,17.5C 102.333,16.8333 102.667,16.1667 103,15.5C 103.401,17.5212 104.568,18.8545 106.5,19.5C 107.581,16.2539 109.581,13.7539 112.5,12C 115.56,11.1524 118.56,10.1524 121.5,9C 122.833,8 122.833,7 121.5,6C 124.061,6.4012 126.728,6.23453 129.5,5.5C 129.336,8.1873 129.503,10.854 130,13.5C 130.495,11.5273 130.662,9.5273 130.5,7.5C 131.873,7.65668 133.207,7.49001 134.5,7C 136.047,4.25772 138.214,3.75772 141,5.5C 142.8,4.62162 144.633,3.95496 146.5,3.5C 146.351,4.55198 146.517,5.55198 147,6.5C 147.635,5.03368 148.469,3.70034 149.5,2.5C 148.873,1.58317 148.539,0.583168 148.5,-0.5 Z"/></g>
<g><path style="opacity:1" fill="#000e19" d="M 176.5,20.5 C 176.5,25.1667 176.5,29.8333 176.5,34.5C 175.173,35.8001 173.84,37.1335 172.5,38.5C 170.768,36.7173 169.268,34.7173 168,32.5C 166.941,34.6592 165.441,36.3259 163.5,37.5C 160.712,38.9783 158.046,38.8116 155.5,37C 156.749,35.1759 157.915,35.3426 159,37.5C 160.5,36.3333 162,35.1667 163.5,34C 160.763,32.3859 158.597,30.2192 157,27.5C 156.667,28.1667 156.333,28.8333 156,29.5C 155.784,27.6161 155.117,25.9494 154,24.5C 153.536,25.0944 153.369,25.7611 153.5,26.5C 151.833,26.5 150.167,26.5 148.5,26.5C 146.067,25.7516 143.734,24.585 141.5,23C 142.022,22.4387 142.355,21.772 142.5,21C 141.145,16.4908 140.145,16.6574 139.5,21.5C 137.857,21.4802 136.524,22.1468 135.5,23.5C 133.004,21.095 133.171,18.7617 136,16.5C 136.423,17.9561 137.256,18.4561 138.5,18C 141.79,15.3856 144.29,12.2189 146,8.5C 146.448,10.2244 147.282,10.891 148.5,10.5C 145.147,11.3807 144.647,13.0474 147,15.5C 149.883,12.8427 151.05,9.84268 150.5,6.5C 151.5,6.83333 152.167,7.5 152.5,8.5C 150.798,11.6901 151.464,12.8568 154.5,12C 152.652,14.1792 150.485,16.0126 148,17.5C 147.586,17.0426 147.086,16.7093 146.5,16.5C 145.386,17.723 145.219,19.0563 146,20.5C 149.428,19.7434 152.762,19.41 156,19.5C 157.718,20.8502 159.552,22.0168 161.5,23C 160.289,23.7869 159.289,24.4536 158.5,25C 158.611,26.7215 159.111,26.8882 160,25.5C 160.202,27.2556 160.702,28.9223 161.5,30.5C 162.84,28.2682 164.174,25.9349 165.5,23.5C 164.603,23.3309 163.603,22.9976 162.5,22.5C 163.083,20.9984 163.916,19.6651 165,18.5C 165.368,19.91 166.201,20.91 167.5,21.5C 169.893,20.9052 171.727,19.5719 173,17.5C 173.422,19.4257 174.589,20.4257 176.5,20.5 Z"/></g>
<g><path style="opacity:1" fill="#434549" d="M 83.5,28.5 C 83.5,29.1667 83.1667,29.5 82.5,29.5C 73.5248,28.1683 64.1914,27.5016 54.5,27.5C 44.8086,27.5016 35.4752,28.1683 26.5,29.5C 25.596,28.791 25.2627,27.791 25.5,26.5C 45.1955,25.8457 64.5289,26.5124 83.5,28.5 Z"/></g>
<g><path style="opacity:1" fill="#3b4247" d="M 148.5,26.5 C 150.167,26.5 151.833,26.5 153.5,26.5C 153.5,26.8333 153.5,27.1667 153.5,27.5C 142.448,26.8572 131.781,27.5238 121.5,29.5C 120.596,28.791 120.263,27.791 120.5,26.5C 129.833,26.5 139.167,26.5 148.5,26.5 Z"/></g>
<g><path style="opacity:1" fill="#c0c3c6" d="M 82.5,29.5 C 79.2457,29.2069 76.2457,29.8736 73.5,31.5C 73.5,30.5 73.5,29.5 73.5,28.5C 69.1539,28.3343 64.8206,28.501 60.5,29C 62.7078,29.1909 64.7078,29.6909 66.5,30.5C 62.8669,30.443 62.7002,31.443 66,33.5C 66.6667,36.5 66.6667,39.5 66,42.5C 63.0862,44.1784 60.5862,46.1784 58.5,48.5C 57.3263,49.5137 56.6596,50.847 56.5,52.5C 56.394,60.8771 60.394,63.7104 68.5,61C 69.0442,60.2828 69.7109,59.7828 70.5,59.5C 70.3284,60.4916 70.6618,61.1583 71.5,61.5C 62.2449,67.0428 56.2449,64.5428 53.5,54C 53.5316,51.1047 54.5316,48.6047 56.5,46.5C 48.3287,44.4927 45.662,39.4927 48.5,31.5C 46.8333,30.1667 45.1667,30.1667 43.5,31.5C 45.4518,38.3581 47.7852,45.0248 50.5,51.5C 49.1054,50.1854 48.1054,50.5188 47.5,52.5C 46.3586,49.7458 45.0252,47.0791 43.5,44.5C 41.8629,34.8633 36.1962,29.8633 26.5,29.5C 35.4752,28.1683 44.8086,27.5016 54.5,27.5C 64.1914,27.5016 73.5248,28.1683 82.5,29.5 Z"/></g>
<g><path style="opacity:1" fill="#02131b" d="M 129.5,50.5 C 129.371,52.2161 129.038,53.8828 128.5,55.5C 126.802,61.6374 124.802,67.6374 122.5,73.5C 119.183,72.7541 118.183,74.0875 119.5,77.5C 117.854,79.0548 117.521,80.7215 118.5,82.5C 118.154,83.6956 117.654,83.6956 117,82.5C 116.751,83.624 116.251,84.624 115.5,85.5C 115.167,85.1667 114.833,84.8333 114.5,84.5C 116.12,82.2606 115.787,80.4272 113.5,79C 115.166,76.5203 115.999,73.687 116,70.5C 116.333,70.8333 116.667,71.1667 117,71.5C 118.8,66.6743 118.967,65.0076 117.5,66.5C 116.178,66.67 115.011,66.3366 114,65.5C 112.164,68.2666 109.831,69.2666 107,68.5C 103.82,69.0137 101.986,70.8471 101.5,74C 102.448,74.4828 103.448,74.6495 104.5,74.5C 104.649,75.552 104.483,76.552 104,77.5C 100.374,79.0173 97.5411,81.3506 95.5,84.5C 95.8333,84.8333 96.1667,85.1667 96.5,85.5C 99.1014,82.9991 101.601,82.9991 104,85.5C 105.297,84.2164 106.464,84.3831 107.5,86C 106.427,87.3129 105.76,88.8129 105.5,90.5C 106.488,91.19 107.488,92.3567 108.5,94C 107.234,94.3095 106.067,94.8095 105,95.5C 103.829,94.1068 102.329,93.2735 100.5,93C 101.451,92.2825 101.617,91.4491 101,90.5C 99.3745,90.8541 97.5412,90.8541 95.5,90.5C 95.7148,92.1788 95.0481,93.1788 93.5,93.5C 92.9759,91.6943 92.3092,90.0276 91.5,88.5C 87.4365,78.6425 83.7698,68.6425 80.5,58.5C 82.46,59.1383 84.2933,59.1383 86,58.5C 86.7096,59.9733 87.8762,60.6399 89.5,60.5C 89.6329,57.1043 90.6329,56.7709 92.5,59.5C 94.769,58.1847 97.1023,57.0181 99.5,56C 98.3279,55.5814 97.3279,54.9147 96.5,54C 99.9475,52.0608 103.281,49.8942 106.5,47.5C 106.747,44.656 107.08,41.8227 107.5,39C 106.451,38.5078 105.451,38.6744 104.5,39.5C 104.167,38.8333 103.833,38.1667 103.5,37.5C 104.065,35.5952 105.065,33.9285 106.5,32.5C 109.547,29.796 111.881,30.4626 113.5,34.5C 114.518,32.3881 116.018,30.7214 118,29.5C 122.007,29.6555 124.34,31.6555 125,35.5C 125.333,34.5 125.667,33.5 126,32.5C 126.333,32.8333 126.667,33.1667 127,33.5C 128.199,36.0177 129.365,38.5177 130.5,41C 129.744,44.1248 129.411,47.2914 129.5,50.5 Z"/></g>
<g><path style="opacity:1" fill="#b3b5b7" d="M 153.5,27.5 C 148.948,29.2141 144.781,31.8808 141,35.5C 137.985,40.5251 135.818,45.8585 134.5,51.5C 133.833,52.1667 133.167,52.8333 132.5,53.5C 132.44,52.9569 132.107,52.6236 131.5,52.5C 130.712,53.7701 129.712,54.7701 128.5,55.5C 129.038,53.8828 129.371,52.2161 129.5,50.5C 130.927,48.8516 131.76,46.8516 132,44.5C 134.853,34.8408 131.353,29.8408 121.5,29.5C 131.781,27.5238 142.448,26.8572 153.5,27.5 Z"/></g>
<g><path style="opacity:1" fill="#171c20" d="M 53.5,30.5 C 57.4327,30.5757 60.9327,31.909 64,34.5C 65.6007,42.5639 62.434,45.3973 54.5,43C 48.194,39.305 47.8606,35.1384 53.5,30.5 Z"/></g>
<g><path style="opacity:1" fill="#c9d0d6" d="M 55.5,33.5 C 56.8333,33.5 58.1667,33.5 59.5,33.5C 59.4015,36.1038 58.2349,38.1038 56,39.5C 54.7202,39.3865 53.8869,38.7199 53.5,37.5C 54.1799,36.1401 54.8466,34.8068 55.5,33.5 Z"/></g>
<g><path style="opacity:1" fill="#182128" d="M 71.5,61.5 C 73.2083,59.784 74.5416,57.784 75.5,55.5C 78.5448,60.5741 80.7115,65.9074 82,71.5C 80.3621,69.2663 78.1955,67.933 75.5,67.5C 70.4567,65.5047 66.29,66.838 63,71.5C 60.3799,79.0431 62.8799,83.0431 70.5,83.5C 70.6204,81.8014 70.9537,80.1347 71.5,78.5C 71.1667,77.8333 70.8333,77.1667 70.5,76.5C 69.1861,77.3128 68.0195,78.3128 67,79.5C 63.6351,71.37 66.4685,68.0366 75.5,69.5C 77.8614,70.4348 80.0281,71.7682 82,73.5C 85.5998,78.698 88.0998,84.3646 89.5,90.5C 89.3215,93.2165 88.8215,95.8832 88,98.5C 84.2172,101.732 80.2172,104.732 76,107.5C 73.0346,113.889 74.8679,118.389 81.5,121C 85.4862,121.499 89.4862,121.666 93.5,121.5C 94.6841,123.463 95.5174,125.463 96,127.5C 86.6623,122.659 81.6623,125.326 81,135.5C 79.3046,130.34 77.4713,125.34 75.5,120.5C 69.6666,104.793 63.9999,89.1266 58.5,73.5C 55.8333,66.1667 53.1667,58.8333 50.5,51.5C 47.7852,45.0248 45.4518,38.3581 43.5,31.5C 45.1667,30.1667 46.8333,30.1667 48.5,31.5C 45.662,39.4927 48.3287,44.4927 56.5,46.5C 54.5316,48.6047 53.5316,51.1047 53.5,54C 56.2449,64.5428 62.2449,67.0428 71.5,61.5 Z"/></g>
<g><path style="opacity:1" fill="#05141a" d="M 163.5,37.5 C 163.071,40.7864 163.071,43.9531 163.5,47C 162.285,49.0955 161.451,48.9288 161,46.5C 160.24,48.4965 159.74,50.1632 159.5,51.5C 156.192,49.0662 156.525,46.5662 160.5,44C 158.744,43.7978 157.078,43.2978 155.5,42.5C 154.77,39.8908 154.27,37.2241 154,34.5C 151.724,36.3074 151.557,37.8074 153.5,39C 150.822,39.1614 149.155,40.4948 148.5,43C 149.404,45.8113 149.737,48.478 149.5,51C 148.234,51.3095 147.067,51.8095 146,52.5C 145.581,48.1482 144.914,47.8149 144,51.5C 142.943,49.0999 142.276,46.7665 142,44.5C 141.5,45 141,45.5 140.5,46C 141.833,47 141.833,48 140.5,49C 141.167,49.3333 141.833,49.6667 142.5,50C 138.5,52.6667 138.5,55.3333 142.5,58C 141.333,58.5 140.5,59.3333 140,60.5C 138.413,59.273 137.079,59.6063 136,61.5C 134.801,58.2744 134.301,54.941 134.5,51.5C 135.818,45.8585 137.985,40.5251 141,35.5C 144.781,31.8808 148.948,29.2141 153.5,27.5C 153.5,27.1667 153.5,26.8333 153.5,26.5C 153.369,25.7611 153.536,25.0944 154,24.5C 155.117,25.9494 155.784,27.6161 156,29.5C 156.333,28.8333 156.667,28.1667 157,27.5C 158.597,30.2192 160.763,32.3859 163.5,34C 162,35.1667 160.5,36.3333 159,37.5C 157.915,35.3426 156.749,35.1759 155.5,37C 158.046,38.8116 160.712,38.9783 163.5,37.5 Z"/></g>
<g><path style="opacity:1" fill="#8f979a" d="M 58.5,48.5 C 61.7131,48.19 64.7131,48.5233 67.5,49.5C 64.7531,49.1866 62.0865,49.52 59.5,50.5C 59.9569,51.2975 60.6236,51.6309 61.5,51.5C 60.2842,54.8944 58.6175,55.2278 56.5,52.5C 56.6596,50.847 57.3263,49.5137 58.5,48.5 Z"/></g>
<g><path style="opacity:1" fill="#d8dce0" d="M 67.5,49.5 C 70.254,51.0528 71.0874,53.3861 70,56.5C 68.516,52.5123 65.6826,50.8456 61.5,51.5C 60.6236,51.6309 59.9569,51.2975 59.5,50.5C 62.0865,49.52 64.7531,49.1866 67.5,49.5 Z"/></g>
<g><path style="opacity:1" fill="#d2dadd" d="M 132.5,53.5 C 129.322,66.0433 124.989,78.0433 119.5,89.5C 118.566,88.4324 118.232,87.099 118.5,85.5C 119.832,81.5051 121.166,77.5051 122.5,73.5C 124.802,67.6374 126.802,61.6374 128.5,55.5C 129.712,54.7701 130.712,53.7701 131.5,52.5C 132.107,52.6236 132.44,52.9569 132.5,53.5 Z"/></g>
<g><path style="opacity:1" fill="#010b12" d="M 43.5,44.5 C 45.0252,47.0791 46.3586,49.7458 47.5,52.5C 50.3498,59.7117 53.0165,67.045 55.5,74.5C 54.1779,74.67 53.0113,74.3366 52,73.5C 51.6667,71.8333 51.3333,70.1667 51,68.5C 50.7811,69.938 50.2811,71.2713 49.5,72.5C 48.3044,72.1543 48.3044,71.6543 49.5,71C 48.6919,70.6924 48.0253,70.1924 47.5,69.5C 46.9588,67.4648 46.2922,65.4648 45.5,63.5C 45.1667,63.6667 44.8333,63.8333 44.5,64C 44.7078,66.1037 44.7078,68.2704 44.5,70.5C 41.1696,71.0938 37.8363,71.7604 34.5,72.5C 38.3477,72.2253 39.0144,73.7253 36.5,77C 35.5509,77.6172 34.7175,77.4506 34,76.5C 32.017,78.9972 32.8503,80.1639 36.5,80C 33.5375,84.0788 31.8708,88.5788 31.5,93.5C 28.7952,93.6198 28.1285,92.6198 29.5,90.5C 28.5,89.6667 27.5,88.8333 26.5,88C 28.9826,85.6919 29.1493,83.1919 27,80.5C 25.4004,84.9359 23.567,85.2692 21.5,81.5C 22.847,77.8904 22.1804,77.5571 19.5,80.5C 19.2391,84.4799 17.5724,87.6466 14.5,90C 15.8172,91.7672 17.4839,93.1005 19.5,94C 18.8641,96.3938 18.8641,98.8938 19.5,101.5C 18.5,101.5 17.5,101.5 16.5,101.5C 15.9836,98.1012 15.1503,94.7679 14,91.5C 11.7272,92.843 9.56055,94.343 7.5,96C 4.25228,96.6709 3.91894,96.1709 6.5,94.5C 7.42869,93.3112 7.76202,91.9778 7.5,90.5C 6.17793,90.33 5.01127,90.6634 4,91.5C 3.62709,93.6982 3.12709,95.8649 2.5,98C 2.15013,99.2575 1.48346,99.5908 0.5,99C 0.725361,94.5123 1.39203,90.179 2.5,86C 2.25169,84.2509 1.25169,83.4176 -0.5,83.5C -0.5,82.5 -0.5,81.5 -0.5,80.5C 0.458367,80.9528 1.2917,81.6195 2,82.5C 2.69458,80.2779 3.52791,78.1113 4.5,76C 4.3552,75.228 4.02186,74.5613 3.5,74C 7.75823,71.8952 9.4249,68.3952 8.5,63.5C 10.5,63.5 12.5,63.5 14.5,63.5C 14.3359,66.1873 14.5026,68.854 15,71.5C 15.5573,69.3853 16.3906,67.3853 17.5,65.5C 18.6034,65.0024 19.6034,64.6691 20.5,64.5C 17.5145,63.2724 14.5145,62.1057 11.5,61C 14.7801,56.7204 19.1134,54.7204 24.5,55C 23.09,54.6322 22.09,53.7989 21.5,52.5C 25.3642,51.05 25.3642,49.55 21.5,48C 22.8333,47.3333 24.1667,47.3333 25.5,48C 26.6405,48.7412 26.6405,49.5745 25.5,50.5C 27.6367,51.0798 29.47,52.0798 31,53.5C 31.4955,51.5273 31.6621,49.5273 31.5,47.5C 33.4672,47.7394 35.3005,47.4061 37,46.5C 37.4828,47.448 37.6495,48.448 37.5,49.5C 32.7566,50.1409 32.4232,51.6409 36.5,54C 36.4339,56.1086 36.1005,58.2753 35.5,60.5C 36.325,61.3857 37.325,61.719 38.5,61.5C 38.238,60.0222 38.5713,58.6888 39.5,57.5C 40.086,57.7093 40.586,58.0426 41,58.5C 43.6945,57.994 45.1945,56.8273 45.5,55C 44.1667,54 44.1667,53 45.5,52C 44.6433,51.3109 43.9767,50.4776 43.5,49.5C 44.9023,48.1575 44.5689,47.3242 42.5,47C 43.2524,46.3292 43.5858,45.4959 43.5,44.5 Z"/></g>
<g><path style="opacity:1" fill="#e2e6ea" d="M 50.5,51.5 C 53.1667,58.8333 55.8333,66.1667 58.5,73.5C 58.7148,75.1788 58.0481,76.1788 56.5,76.5C 56.5,75.8333 56.1667,75.5 55.5,75.5C 55.5,75.1667 55.5,74.8333 55.5,74.5C 53.0165,67.045 50.3498,59.7117 47.5,52.5C 48.1054,50.5188 49.1054,50.1854 50.5,51.5 Z"/></g>
<g><path style="opacity:1" fill="#1e2328" d="M 66.5,30.5 C 69.6029,37.4798 71.9363,44.8131 73.5,52.5C 72.9745,55.0291 71.9745,57.3624 70.5,59.5C 69.7109,59.7828 69.0442,60.2828 68.5,61C 60.394,63.7104 56.394,60.8771 56.5,52.5C 58.6175,55.2278 60.2842,54.8944 61.5,51.5C 65.6826,50.8456 68.516,52.5123 70,56.5C 71.0874,53.3861 70.254,51.0528 67.5,49.5C 64.7131,48.5233 61.7131,48.19 58.5,48.5C 60.5862,46.1784 63.0862,44.1784 66,42.5C 66.6667,39.5 66.6667,36.5 66,33.5C 62.7002,31.443 62.8669,30.443 66.5,30.5 Z"/></g>
<g><path style="opacity:1" fill="#c9ced4" d="M 63.5,55.5 C 64.5,55.5 65.5,55.5 66.5,55.5C 66.5,56.5 66.5,57.5 66.5,58.5C 63.4331,58.8795 62.4331,57.8795 63.5,55.5 Z"/></g>
<g><path style="opacity:1" fill="#031720" d="M 176.5,34.5 C 176.5,39.5 176.5,44.5 176.5,49.5C 174.914,50.1481 173.247,50.6481 171.5,51C 170.624,52.586 169.624,54.086 168.5,55.5C 166.362,55.6381 164.195,55.6381 162,55.5C 160.831,56.0085 159.998,56.8419 159.5,58C 163.231,58.0356 166.898,58.8689 170.5,60.5C 170.5,61.5 170.5,62.5 170.5,63.5C 168.139,63.3259 165.806,62.9926 163.5,62.5C 163.307,66.449 162.807,66.449 162,62.5C 161.506,64.1341 161.34,65.8008 161.5,67.5C 164.269,67.5398 166.602,67.8732 168.5,68.5C 166.376,69.458 164.376,70.6246 162.5,72C 163.357,72.6891 164.023,73.5224 164.5,74.5C 163.253,76.0421 163.253,77.5421 164.5,79C 162.231,79.7581 160.064,79.5914 158,78.5C 156.407,80.2853 154.907,80.452 153.5,79C 154.747,77.5421 154.747,76.0421 153.5,74.5C 154.651,73.269 155.817,73.269 157,74.5C 158.814,73.1486 158.481,72.1486 156,71.5C 154.107,64.8806 152.607,64.8806 151.5,71.5C 151.326,73.6934 151.993,75.5267 153.5,77C 152.773,78.3988 152.273,79.8988 152,81.5C 150.796,80.5294 150.296,79.5294 150.5,78.5C 148.899,79.1654 147.399,79.4988 146,79.5C 146.253,76.867 146.253,74.2004 146,71.5C 145.667,72.8333 145.333,74.1667 145,75.5C 144.784,73.6161 144.117,71.9494 143,70.5C 142.411,74.4778 142.577,78.3112 143.5,82C 142.207,82.49 140.873,82.6567 139.5,82.5C 139.393,84.9032 140.393,86.7365 142.5,88C 141.672,88.9147 140.672,89.5814 139.5,90C 140.91,90.3678 141.91,91.2011 142.5,92.5C 142.167,94.5 141.833,96.5 141.5,98.5C 139.614,99.4063 137.78,100.406 136,101.5C 135.544,100.256 136.044,99.4226 137.5,99C 135.667,97.2125 133.667,97.0458 131.5,98.5C 130.304,98.1543 130.304,97.6543 131.5,97C 125.458,94.5129 122.458,96.6795 122.5,103.5C 121.391,102.41 120.391,102.41 119.5,103.5C 123.361,104.598 123.361,105.431 119.5,106C 121.569,106.324 121.902,107.158 120.5,108.5C 118.807,109.228 117.307,110.228 116,111.5C 115.014,110.829 113.847,110.829 112.5,111.5C 112.433,110.041 112.766,108.708 113.5,107.5C 115.81,101.589 117.81,95.5891 119.5,89.5C 124.989,78.0433 129.322,66.0433 132.5,53.5C 133.167,52.8333 133.833,52.1667 134.5,51.5C 134.301,54.941 134.801,58.2744 136,61.5C 137.079,59.6063 138.413,59.273 140,60.5C 140.5,59.3333 141.333,58.5 142.5,58C 138.5,55.3333 138.5,52.6667 142.5,50C 141.833,49.6667 141.167,49.3333 140.5,49C 141.833,48 141.833,47 140.5,46C 141,45.5 141.5,45 142,44.5C 142.276,46.7665 142.943,49.0999 144,51.5C 144.914,47.8149 145.581,48.1482 146,52.5C 147.067,51.8095 148.234,51.3095 149.5,51C 149.737,48.478 149.404,45.8113 148.5,43C 149.155,40.4948 150.822,39.1614 153.5,39C 151.557,37.8074 151.724,36.3074 154,34.5C 154.27,37.2241 154.77,39.8908 155.5,42.5C 157.078,43.2978 158.744,43.7978 160.5,44C 156.525,46.5662 156.192,49.0662 159.5,51.5C 159.74,50.1632 160.24,48.4965 161,46.5C 161.451,48.9288 162.285,49.0955 163.5,47C 163.071,43.9531 163.071,40.7864 163.5,37.5C 165.441,36.3259 166.941,34.6592 168,32.5C 169.268,34.7173 170.768,36.7173 172.5,38.5C 173.84,37.1335 175.173,35.8001 176.5,34.5 Z"/></g>
<g><path style="opacity:1" fill="#d3dadd" d="M 73.5,31.5 C 73.5205,40.9297 75.8539,49.9297 80.5,58.5C 83.7698,68.6425 87.4365,78.6425 91.5,88.5C 91.6602,90.1992 91.4935,91.8659 91,93.5C 90.7679,92.2625 90.2679,91.2625 89.5,90.5C 88.0998,84.3646 85.5998,78.698 82,73.5C 80.0281,71.7682 77.8614,70.4348 75.5,69.5C 74.4937,68.6043 74.4937,67.9377 75.5,67.5C 78.1955,67.933 80.3621,69.2663 82,71.5C 80.7115,65.9074 78.5448,60.5741 75.5,55.5C 74.5416,57.784 73.2083,59.784 71.5,61.5C 70.6618,61.1583 70.3284,60.4916 70.5,59.5C 71.9745,57.3624 72.9745,55.0291 73.5,52.5C 71.9363,44.8131 69.6029,37.4798 66.5,30.5C 64.7078,29.6909 62.7078,29.1909 60.5,29C 64.8206,28.501 69.1539,28.3343 73.5,28.5C 73.5,29.5 73.5,30.5 73.5,31.5 Z"/></g>
<g><path style="opacity:1" fill="#011925" d="M 176.5,49.5 C 176.5,90.1667 176.5,130.833 176.5,171.5C 148.833,171.5 121.167,171.5 93.5,171.5C 94.7279,169.99 94.7279,168.49 93.5,167C 91.8988,166.727 90.3988,166.227 89,165.5C 88.6667,165.833 88.3333,166.167 88,166.5C 87.2559,163.707 85.4226,162.207 82.5,162C 84.556,161.689 86.556,161.189 88.5,160.5C 89.4776,160.977 90.3109,161.643 91,162.5C 92.9338,160.581 92.7671,159.081 90.5,158C 92.7489,157.137 94.5822,157.637 96,159.5C 96.7096,158.027 97.8762,157.36 99.5,157.5C 99.5,158.5 99.5,159.5 99.5,160.5C 101.857,160.663 104.19,160.497 106.5,160C 106.957,159.586 107.291,159.086 107.5,158.5C 106.284,157.904 104.951,157.737 103.5,158C 104.711,157.107 104.711,156.274 103.5,155.5C 102.808,156.025 102.308,156.692 102,157.5C 100.989,156.663 99.8221,156.33 98.5,156.5C 98.995,153.003 100.828,152.003 104,153.5C 105.814,152.149 105.481,151.149 103,150.5C 102.667,150.833 102.333,151.167 102,151.5C 101.626,150.584 101.126,149.75 100.5,149C 101.308,148.692 101.975,148.192 102.5,147.5C 102.24,146.095 101.907,144.762 101.5,143.5C 105.167,132.828 108.834,122.162 112.5,111.5C 113.847,110.829 115.014,110.829 116,111.5C 117.307,110.228 118.807,109.228 120.5,108.5C 121.902,107.158 121.569,106.324 119.5,106C 123.361,105.431 123.361,104.598 119.5,103.5C 120.391,102.41 121.391,102.41 122.5,103.5C 122.458,96.6795 125.458,94.5129 131.5,97C 130.304,97.6543 130.304,98.1543 131.5,98.5C 133.667,97.0458 135.667,97.2125 137.5,99C 136.044,99.4226 135.544,100.256 136,101.5C 137.78,100.406 139.614,99.4063 141.5,98.5C 141.833,96.5 142.167,94.5 142.5,92.5C 141.91,91.2011 140.91,90.3678 139.5,90C 140.672,89.5814 141.672,88.9147 142.5,88C 140.393,86.7365 139.393,84.9032 139.5,82.5C 140.873,82.6567 142.207,82.49 143.5,82C 142.577,78.3112 142.411,74.4778 143,70.5C 144.117,71.9494 144.784,73.6161 145,75.5C 145.333,74.1667 145.667,72.8333 146,71.5C 146.253,74.2004 146.253,76.867 146,79.5C 147.399,79.4988 148.899,79.1654 150.5,78.5C 150.296,79.5294 150.796,80.5294 152,81.5C 152.273,79.8988 152.773,78.3988 153.5,77C 151.993,75.5267 151.326,73.6934 151.5,71.5C 152.607,64.8806 154.107,64.8806 156,71.5C 158.481,72.1486 158.814,73.1486 157,74.5C 155.817,73.269 154.651,73.269 153.5,74.5C 154.747,76.0421 154.747,77.5421 153.5,79C 154.907,80.452 156.407,80.2853 158,78.5C 160.064,79.5914 162.231,79.7581 164.5,79C 163.253,77.5421 163.253,76.0421 164.5,74.5C 164.023,73.5224 163.357,72.6891 162.5,72C 164.376,70.6246 166.376,69.458 168.5,68.5C 166.602,67.8732 164.269,67.5398 161.5,67.5C 161.34,65.8008 161.506,64.1341 162,62.5C 162.807,66.449 163.307,66.449 163.5,62.5C 165.806,62.9926 168.139,63.3259 170.5,63.5C 170.5,62.5 170.5,61.5 170.5,60.5C 166.898,58.8689 163.231,58.0356 159.5,58C 159.998,56.8419 160.831,56.0085 162,55.5C 164.195,55.6381 166.362,55.6381 168.5,55.5C 169.624,54.086 170.624,52.586 171.5,51C 173.247,50.6481 174.914,50.1481 176.5,49.5 Z"/></g>
<g><path style="opacity:1" fill="#001019" d="M 55.5,74.5 C 55.5,74.8333 55.5,75.1667 55.5,75.5C 53.998,80.7396 52.6647,80.7396 51.5,75.5C 50.0222,75.238 48.6888,75.5713 47.5,76.5C 47.0284,79.0683 47.0284,81.7349 47.5,84.5C 45.0099,86.51 42.3433,88.51 39.5,90.5C 39.7093,91.086 40.0426,91.586 40.5,92C 37.0907,93.1338 36.7573,94.8004 39.5,97C 39.2286,100.731 37.3953,103.231 34,104.5C 33.2476,108.403 31.0809,109.403 27.5,107.5C 26.5713,106.311 26.238,104.978 26.5,103.5C 21.8764,104.611 21.5431,106.445 25.5,109C 26.327,112.153 25.4936,112.32 23,109.5C 21.1936,111.952 19.6936,111.619 18.5,108.5C 17.1255,109.711 15.6255,110.711 14,111.5C 12.0436,111.339 10.0436,111.006 8,110.5C 7.66667,111.167 7.33333,111.833 7,112.5C 5.34513,112.198 4.01179,110.864 3,108.5C 2.66546,111.19 1.49879,111.857 -0.5,110.5C -0.5,101.5 -0.5,92.5 -0.5,83.5C 1.25169,83.4176 2.25169,84.2509 2.5,86C 1.39203,90.179 0.725361,94.5123 0.5,99C 1.48346,99.5908 2.15013,99.2575 2.5,98C 3.12709,95.8649 3.62709,93.6982 4,91.5C 5.01127,90.6634 6.17793,90.33 7.5,90.5C 7.76202,91.9778 7.42869,93.3112 6.5,94.5C 3.91894,96.1709 4.25228,96.6709 7.5,96C 9.56055,94.343 11.7272,92.843 14,91.5C 15.1503,94.7679 15.9836,98.1012 16.5,101.5C 17.5,101.5 18.5,101.5 19.5,101.5C 18.8641,98.8938 18.8641,96.3938 19.5,94C 17.4839,93.1005 15.8172,91.7672 14.5,90C 17.5724,87.6466 19.2391,84.4799 19.5,80.5C 22.1804,77.5571 22.847,77.8904 21.5,81.5C 23.567,85.2692 25.4004,84.9359 27,80.5C 29.1493,83.1919 28.9826,85.6919 26.5,88C 27.5,88.8333 28.5,89.6667 29.5,90.5C 28.1285,92.6198 28.7952,93.6198 31.5,93.5C 31.8708,88.5788 33.5375,84.0788 36.5,80C 32.8503,80.1639 32.017,78.9972 34,76.5C 34.7175,77.4506 35.5509,77.6172 36.5,77C 39.0144,73.7253 38.3477,72.2253 34.5,72.5C 37.8363,71.7604 41.1696,71.0938 44.5,70.5C 44.7078,68.2704 44.7078,66.1037 44.5,64C 44.8333,63.8333 45.1667,63.6667 45.5,63.5C 46.2922,65.4648 46.9588,67.4648 47.5,69.5C 48.0253,70.1924 48.6919,70.6924 49.5,71C 48.3044,71.6543 48.3044,72.1543 49.5,72.5C 50.2811,71.2713 50.7811,69.938 51,68.5C 51.3333,70.1667 51.6667,71.8333 52,73.5C 53.0113,74.3366 54.1779,74.67 55.5,74.5 Z"/></g>
<g><path style="opacity:1" fill="#c1cbd1" d="M 74.5,72.5 C 80.2015,73.534 81.8682,76.7006 79.5,82C 76.4305,82.9356 75.7639,82.1023 77.5,79.5C 76.7485,77.0037 75.7485,74.6704 74.5,72.5 Z"/></g>
<g><path style="opacity:1" fill="#9ea9b0" d="M 75.5,67.5 C 74.4937,67.9377 74.4937,68.6043 75.5,69.5C 66.4685,68.0366 63.6351,71.37 67,79.5C 68.0195,78.3128 69.1861,77.3128 70.5,76.5C 70.8333,77.1667 71.1667,77.8333 71.5,78.5C 70.9537,80.1347 70.6204,81.8014 70.5,83.5C 62.8799,83.0431 60.3799,79.0431 63,71.5C 66.29,66.838 70.4567,65.5047 75.5,67.5 Z"/></g>
<g><path style="opacity:1" fill="#bcc9d1" d="M 80.5,87.5 C 85.4006,89.5263 86.734,93.0263 84.5,98C 84.1667,98.1667 83.8333,98.3333 83.5,98.5C 82.6858,96.2338 82.1858,93.9005 82,91.5C 80.8904,89.9632 79.3904,89.2965 77.5,89.5C 76.325,89.719 75.325,89.3857 74.5,88.5C 76.396,87.5344 78.396,87.2011 80.5,87.5 Z"/></g>
<g><path style="opacity:1" fill="#98a3ab" d="M 80.5,87.5 C 78.396,87.2011 76.396,87.5344 74.5,88.5C 75.325,89.3857 76.325,89.719 77.5,89.5C 76.791,90.404 75.791,90.7373 74.5,90.5C 74.5,91.5 74.5,92.5 74.5,93.5C 76.1667,93.5 77.8333,93.5 79.5,93.5C 79.5,94.5 79.5,95.5 79.5,96.5C 77.7376,96.6427 76.0709,96.3094 74.5,95.5C 73.6143,96.325 73.281,97.325 73.5,98.5C 72.9096,96.0095 72.743,93.3429 73,90.5C 72.3292,89.7476 71.4959,89.4142 70.5,89.5C 71.0577,88.2101 72.0577,87.3768 73.5,87C 76.0385,86.2042 78.3718,86.3709 80.5,87.5 Z"/></g>
<g><path style="opacity:1" fill="#c3cbd0" d="M 70.5,89.5 C 71.4959,89.4142 72.3292,89.7476 73,90.5C 72.743,93.3429 72.9096,96.0095 73.5,98.5C 74.9869,99.8036 76.6536,100.97 78.5,102C 70.494,101.519 67.8273,97.3522 70.5,89.5 Z"/></g>
<g><path style="opacity:1" fill="#b5bec5" d="M 91.5,88.5 C 92.3092,90.0276 92.9759,91.6943 93.5,93.5C 93.5,94.1667 93.5,94.8333 93.5,95.5C 92.4489,96.2223 91.7822,97.2223 91.5,98.5C 90.9717,99.7206 90.305,100.887 89.5,102C 86.0061,103.579 82.6728,105.413 79.5,107.5C 77.046,117.878 81.046,121.711 91.5,119C 92.7101,117.961 93.7101,116.794 94.5,115.5C 95.212,114.261 96.212,113.761 97.5,114C 96.6634,115.011 96.33,116.178 96.5,117.5C 95.8333,118.833 95.1667,120.167 94.5,121.5C 94.1667,121.5 93.8333,121.5 93.5,121.5C 89.4862,121.666 85.4862,121.499 81.5,121C 74.8679,118.389 73.0346,113.889 76,107.5C 80.2172,104.732 84.2172,101.732 88,98.5C 88.8215,95.8832 89.3215,93.2165 89.5,90.5C 90.2679,91.2625 90.7679,92.2625 91,93.5C 91.4935,91.8659 91.6602,90.1992 91.5,88.5 Z"/></g>
<g><path style="opacity:1" fill="#b2bfc3" d="M 118.5,85.5 C 118.232,87.099 118.566,88.4324 119.5,89.5C 117.81,95.5891 115.81,101.589 113.5,107.5C 112.566,106.432 112.232,105.099 112.5,103.5C 114.206,97.3152 116.206,91.3152 118.5,85.5 Z"/></g>
<g><path style="opacity:1" fill="#071a23" d="M 122.5,73.5 C 121.166,77.5051 119.832,81.5051 118.5,85.5C 116.206,91.3152 114.206,97.3152 112.5,103.5C 109.71,109.305 107.044,115.305 104.5,121.5C 101.589,112.409 97.9221,103.743 93.5,95.5C 93.5,94.8333 93.5,94.1667 93.5,93.5C 95.0481,93.1788 95.7148,92.1788 95.5,90.5C 97.5412,90.8541 99.3745,90.8541 101,90.5C 101.617,91.4491 101.451,92.2825 100.5,93C 102.329,93.2735 103.829,94.1068 105,95.5C 106.067,94.8095 107.234,94.3095 108.5,94C 107.488,92.3567 106.488,91.19 105.5,90.5C 105.76,88.8129 106.427,87.3129 107.5,86C 106.464,84.3831 105.297,84.2164 104,85.5C 101.601,82.9991 99.1014,82.9991 96.5,85.5C 96.1667,85.1667 95.8333,84.8333 95.5,84.5C 97.5411,81.3506 100.374,79.0173 104,77.5C 104.483,76.552 104.649,75.552 104.5,74.5C 103.448,74.6495 102.448,74.4828 101.5,74C 101.986,70.8471 103.82,69.0137 107,68.5C 109.831,69.2666 112.164,68.2666 114,65.5C 115.011,66.3366 116.178,66.67 117.5,66.5C 118.967,65.0076 118.8,66.6743 117,71.5C 116.667,71.1667 116.333,70.8333 116,70.5C 115.999,73.687 115.166,76.5203 113.5,79C 115.787,80.4272 116.12,82.2606 114.5,84.5C 114.833,84.8333 115.167,85.1667 115.5,85.5C 116.251,84.624 116.751,83.624 117,82.5C 117.654,83.6956 118.154,83.6956 118.5,82.5C 117.521,80.7215 117.854,79.0548 119.5,77.5C 118.183,74.0875 119.183,72.7541 122.5,73.5 Z"/></g>
<g><path style="opacity:1" fill="#142128" d="M 91.5,98.5 C 94.4826,102.798 96.6493,107.465 98,112.5C 94.5483,108.954 90.3816,107.787 85.5,109C 83.393,110.264 82.393,112.097 82.5,114.5C 83.5,114.5 84.5,114.5 85.5,114.5C 85.5,113.5 85.5,112.5 85.5,111.5C 88.1873,111.336 90.854,111.503 93.5,112C 94.3366,113.011 94.67,114.178 94.5,115.5C 93.7101,116.794 92.7101,117.961 91.5,119C 81.046,121.711 77.046,117.878 79.5,107.5C 82.6728,105.413 86.0061,103.579 89.5,102C 90.305,100.887 90.9717,99.7206 91.5,98.5 Z"/></g>
<g><path style="opacity:1" fill="#c7cdd3" d="M 58.5,73.5 C 63.9999,89.1266 69.6666,104.793 75.5,120.5C 75.3573,122.262 75.6906,123.929 76.5,125.5C 76.0302,126.463 75.3635,126.463 74.5,125.5C 68.3425,109.189 62.3425,92.8552 56.5,76.5C 58.0481,76.1788 58.7148,75.1788 58.5,73.5 Z"/></g>
<g><path style="opacity:1" fill="#021621" d="M 47.5,84.5 C 48.5981,85.397 48.5981,86.2303 47.5,87C 49.7271,87.121 51.5604,87.9544 53,89.5C 56.1103,88.3266 56.277,88.8266 53.5,91C 54.5,91.3333 55.5,91.6667 56.5,92C 54.9926,92.8373 54.4926,94.0039 55,95.5C 56.016,94.3659 56.6827,94.6992 57,96.5C 58.8271,95.816 60.3271,96.4827 61.5,98.5C 59.9285,99.2037 58.2618,100.537 56.5,102.5C 57.7946,105.366 57.7946,108.199 56.5,111C 57.4378,112.063 58.4378,113.23 59.5,114.5C 57.0087,115.541 57.0087,116.374 59.5,117C 56.999,118.418 57.3323,119.418 60.5,120C 59.8333,120.333 59.1667,120.667 58.5,121C 58.5536,122.733 59.2202,124.566 60.5,126.5C 52.0281,126.761 51.6947,127.927 59.5,130C 55.6286,132.027 51.9619,131.693 48.5,129C 51.5256,126.591 52.5256,123.591 51.5,120C 49.4144,119.373 49.0811,119.873 50.5,121.5C 49.8333,121.833 49.1667,122.167 48.5,122.5C 49.1667,123.167 49.8333,123.833 50.5,124.5C 48.9928,125.739 47.8261,125.405 47,123.5C 46.4169,125.002 45.5836,126.335 44.5,127.5C 43.1515,125.389 43.4848,123.555 45.5,122C 44.552,121.517 43.552,121.351 42.5,121.5C 42.719,122.675 42.3857,123.675 41.5,124.5C 40.1667,123.5 38.8333,122.5 37.5,121.5C 36.1667,122.5 34.8333,123.5 33.5,124.5C 33.0894,123.738 32.9227,122.738 33,121.5C 32.3333,122.833 31.6667,122.833 31,121.5C 30.3486,123.235 30.5153,124.902 31.5,126.5C 30.635,127.583 29.635,127.749 28.5,127C 29.7836,125.703 29.6169,124.536 28,123.5C 27.51,124.793 27.3433,126.127 27.5,127.5C 24.6081,127.721 21.9415,128.554 19.5,130C 21.3939,131.101 22.0606,132.434 21.5,134C 25.4213,134.203 29.2546,134.703 33,135.5C 33.4083,133.59 34.5749,132.59 36.5,132.5C 38.8333,133.833 41.1667,135.167 43.5,136.5C 45.6854,136.148 47.5188,135.148 49,133.5C 49.5,133.833 50,134.167 50.5,134.5C 49.5,135.333 48.5,136.167 47.5,137C 51.5,139.333 51.5,141.667 47.5,144C 48.1667,144.333 48.8333,144.667 49.5,145C 47.6161,145.216 45.9494,145.883 44.5,147C 46.3072,148.236 48.3072,148.57 50.5,148C 48.4062,149.352 46.0728,149.852 43.5,149.5C 43.6168,147.516 42.9501,145.85 41.5,144.5C 38.5788,143.593 35.5788,143.26 32.5,143.5C 32.6602,141.801 32.4935,140.134 32,138.5C 31.1888,140.67 29.8554,142.337 28,143.5C 27.5,143.167 27,142.833 26.5,142.5C 27.9861,137.514 27.1528,137.181 24,141.5C 22.6796,141.201 21.1796,141.034 19.5,141C 17.473,138.973 15.473,136.973 13.5,135C 15.2556,134.798 16.9223,134.298 18.5,133.5C 16.6379,131.792 15.1379,129.792 14,127.5C 12.4878,128.257 11.1545,129.257 10,130.5C 8.35231,129.283 6.51898,128.45 4.5,128C 6.63999,127.027 8.30666,125.527 9.5,123.5C 8.21777,120.867 6.88443,120.867 5.5,123.5C 4.57131,122.311 4.23798,120.978 4.5,119.5C 2.4458,119.635 0.779138,118.968 -0.5,117.5C -0.5,115.167 -0.5,112.833 -0.5,110.5C 1.49879,111.857 2.66546,111.19 3,108.5C 4.01179,110.864 5.34513,112.198 7,112.5C 7.33333,111.833 7.66667,111.167 8,110.5C 10.0436,111.006 12.0436,111.339 14,111.5C 15.6255,110.711 17.1255,109.711 18.5,108.5C 19.6936,111.619 21.1936,111.952 23,109.5C 25.4936,112.32 26.327,112.153 25.5,109C 21.5431,106.445 21.8764,104.611 26.5,103.5C 26.238,104.978 26.5713,106.311 27.5,107.5C 31.0809,109.403 33.2476,108.403 34,104.5C 37.3953,103.231 39.2286,100.731 39.5,97C 36.7573,94.8004 37.0907,93.1338 40.5,92C 40.0426,91.586 39.7093,91.086 39.5,90.5C 42.3433,88.51 45.0099,86.51 47.5,84.5 Z"/></g>
<g><path style="opacity:1" fill="#08191f" d="M 55.5,75.5 C 56.1667,75.5 56.5,75.8333 56.5,76.5C 62.3425,92.8552 68.3425,109.189 74.5,125.5C 74.5569,126.609 74.8902,127.609 75.5,128.5C 74.4168,128.539 73.4168,128.873 72.5,129.5C 71.646,128.478 70.646,127.645 69.5,127C 70.6405,126.259 70.6405,125.425 69.5,124.5C 71.9458,123.017 71.6124,121.851 68.5,121C 66.1913,120.244 64.1913,120.744 62.5,122.5C 60.7859,121.391 60.1192,122.058 60.5,124.5C 63.5476,124.494 64.0476,125.494 62,127.5C 61.6174,126.944 61.1174,126.611 60.5,126.5C 59.2202,124.566 58.5536,122.733 58.5,121C 59.1667,120.667 59.8333,120.333 60.5,120C 57.3323,119.418 56.999,118.418 59.5,117C 57.0087,116.374 57.0087,115.541 59.5,114.5C 58.4378,113.23 57.4378,112.063 56.5,111C 57.7946,108.199 57.7946,105.366 56.5,102.5C 58.2618,100.537 59.9285,99.2037 61.5,98.5C 60.3271,96.4827 58.8271,95.816 57,96.5C 56.6827,94.6992 56.016,94.3659 55,95.5C 54.4926,94.0039 54.9926,92.8373 56.5,92C 55.5,91.6667 54.5,91.3333 53.5,91C 56.277,88.8266 56.1103,88.3266 53,89.5C 51.5604,87.9544 49.7271,87.121 47.5,87C 48.5981,86.2303 48.5981,85.397 47.5,84.5C 47.0284,81.7349 47.0284,79.0683 47.5,76.5C 48.6888,75.5713 50.0222,75.238 51.5,75.5C 52.6647,80.7396 53.998,80.7396 55.5,75.5 Z"/></g>
<g><path style="opacity:1" fill="#99a2a7" d="M 93.5,95.5 C 97.9221,103.743 101.589,112.409 104.5,121.5C 107.044,115.305 109.71,109.305 112.5,103.5C 112.232,105.099 112.566,106.432 113.5,107.5C 112.766,108.708 112.433,110.041 112.5,111.5C 108.834,122.162 105.167,132.828 101.5,143.5C 94.994,150.086 88.494,150.086 82,143.5C 79.9063,138.358 77.7397,133.358 75.5,128.5C 74.8902,127.609 74.5569,126.609 74.5,125.5C 75.3635,126.463 76.0302,126.463 76.5,125.5C 75.6906,123.929 75.3573,122.262 75.5,120.5C 77.4713,125.34 79.3046,130.34 81,135.5C 81.6623,125.326 86.6623,122.659 96,127.5C 95.5174,125.463 94.6841,123.463 93.5,121.5C 93.8333,121.5 94.1667,121.5 94.5,121.5C 96.9848,123.652 98.6515,126.319 99.5,129.5C 98.5,130.833 97.5,132.167 96.5,133.5C 96.5,132.5 96.5,131.5 96.5,130.5C 93.8736,129.578 91.2069,128.578 88.5,127.5C 88.7877,129.048 88.7877,130.715 88.5,132.5C 87.4763,131.147 86.143,130.48 84.5,130.5C 84.178,132.722 84.8446,134.556 86.5,136C 89.8168,136.498 93.1501,136.665 96.5,136.5C 96.5,137.5 96.5,138.5 96.5,139.5C 96.5,139.833 96.5,140.167 96.5,140.5C 95.7456,142.446 94.4122,143.279 92.5,143C 93.3567,142.311 94.0233,141.478 94.5,140.5C 90.8667,139.588 87.2001,138.921 83.5,138.5C 84.9414,145.051 88.9414,147.217 95.5,145C 96.7101,143.961 97.7101,142.794 98.5,141.5C 99.4884,140.205 100.488,138.872 101.5,137.5C 103.415,130.469 102.582,123.803 99,117.5C 98.2303,116.402 97.397,116.402 96.5,117.5C 96.33,116.178 96.6634,115.011 97.5,114C 96.212,113.761 95.212,114.261 94.5,115.5C 94.67,114.178 94.3366,113.011 93.5,112C 90.854,111.503 88.1873,111.336 85.5,111.5C 85.5,112.5 85.5,113.5 85.5,114.5C 84.5,114.5 83.5,114.5 82.5,114.5C 82.393,112.097 83.393,110.264 85.5,109C 90.3816,107.787 94.5483,108.954 98,112.5C 96.6493,107.465 94.4826,102.798 91.5,98.5C 91.7822,97.2223 92.4489,96.2223 93.5,95.5 Z"/></g>
<g><path style="opacity:1" fill="#1b2529" d="M 101.5,137.5 C 100.833,135.167 100.167,132.833 99.5,130.5C 99.5,130.167 99.5,129.833 99.5,129.5C 98.6515,126.319 96.9848,123.652 94.5,121.5C 95.1667,120.167 95.8333,118.833 96.5,117.5C 97.397,116.402 98.2303,116.402 99,117.5C 102.582,123.803 103.415,130.469 101.5,137.5 Z"/></g>
<g><path style="opacity:1" fill="#162329" d="M 96.5,133.5 C 96.5,134.5 96.5,135.5 96.5,136.5C 93.1501,136.665 89.8168,136.498 86.5,136C 84.8446,134.556 84.178,132.722 84.5,130.5C 86.143,130.48 87.4763,131.147 88.5,132.5C 88.7877,130.715 88.7877,129.048 88.5,127.5C 91.2069,128.578 93.8736,129.578 96.5,130.5C 96.5,131.5 96.5,132.5 96.5,133.5 Z"/></g>
<g><path style="opacity:1" fill="#c2cacd" d="M 99.5,129.5 C 99.5,129.833 99.5,130.167 99.5,130.5C 99.6633,132.857 99.4966,135.19 99,137.5C 98.2917,138.381 97.4584,139.047 96.5,139.5C 96.5,138.5 96.5,137.5 96.5,136.5C 96.5,135.5 96.5,134.5 96.5,133.5C 97.5,132.167 98.5,130.833 99.5,129.5 Z"/></g>
<g><path style="opacity:1" fill="#031a25" d="M -0.5,117.5 C 0.779138,118.968 2.4458,119.635 4.5,119.5C 4.23798,120.978 4.57131,122.311 5.5,123.5C 6.88443,120.867 8.21777,120.867 9.5,123.5C 8.30666,125.527 6.63999,127.027 4.5,128C 6.51898,128.45 8.35231,129.283 10,130.5C 11.1545,129.257 12.4878,128.257 14,127.5C 15.1379,129.792 16.6379,131.792 18.5,133.5C 16.9223,134.298 15.2556,134.798 13.5,135C 15.473,136.973 17.473,138.973 19.5,141C 21.1796,141.034 22.6796,141.201 24,141.5C 27.1528,137.181 27.9861,137.514 26.5,142.5C 27,142.833 27.5,143.167 28,143.5C 29.8554,142.337 31.1888,140.67 32,138.5C 32.4935,140.134 32.6602,141.801 32.5,143.5C 35.5788,143.26 38.5788,143.593 41.5,144.5C 42.9501,145.85 43.6168,147.516 43.5,149.5C 46.0728,149.852 48.4062,149.352 50.5,148C 48.3072,148.57 46.3072,148.236 44.5,147C 45.9494,145.883 47.6161,145.216 49.5,145C 48.8333,144.667 48.1667,144.333 47.5,144C 51.5,141.667 51.5,139.333 47.5,137C 48.5,136.167 49.5,135.333 50.5,134.5C 50,134.167 49.5,133.833 49,133.5C 47.5188,135.148 45.6854,136.148 43.5,136.5C 41.1667,135.167 38.8333,133.833 36.5,132.5C 34.5749,132.59 33.4083,133.59 33,135.5C 29.2546,134.703 25.4213,134.203 21.5,134C 22.0606,132.434 21.3939,131.101 19.5,130C 21.9415,128.554 24.6081,127.721 27.5,127.5C 27.3433,126.127 27.51,124.793 28,123.5C 29.6169,124.536 29.7836,125.703 28.5,127C 29.635,127.749 30.635,127.583 31.5,126.5C 30.5153,124.902 30.3486,123.235 31,121.5C 31.6667,122.833 32.3333,122.833 33,121.5C 32.9227,122.738 33.0894,123.738 33.5,124.5C 34.8333,123.5 36.1667,122.5 37.5,121.5C 38.8333,122.5 40.1667,123.5 41.5,124.5C 42.3857,123.675 42.719,122.675 42.5,121.5C 43.552,121.351 44.552,121.517 45.5,122C 43.4848,123.555 43.1515,125.389 44.5,127.5C 45.5836,126.335 46.4169,125.002 47,123.5C 47.8261,125.405 48.9928,125.739 50.5,124.5C 49.8333,123.833 49.1667,123.167 48.5,122.5C 49.1667,122.167 49.8333,121.833 50.5,121.5C 49.0811,119.873 49.4144,119.373 51.5,120C 52.5256,123.591 51.5256,126.591 48.5,129C 51.9619,131.693 55.6286,132.027 59.5,130C 51.6947,127.927 52.0281,126.761 60.5,126.5C 61.1174,126.611 61.6174,126.944 62,127.5C 64.0476,125.494 63.5476,124.494 60.5,124.5C 60.1192,122.058 60.7859,121.391 62.5,122.5C 64.1913,120.744 66.1913,120.244 68.5,121C 71.6124,121.851 71.9458,123.017 69.5,124.5C 70.6405,125.425 70.6405,126.259 69.5,127C 70.646,127.645 71.646,128.478 72.5,129.5C 73.4168,128.873 74.4168,128.539 75.5,128.5C 77.7397,133.358 79.9063,138.358 82,143.5C 88.494,150.086 94.994,150.086 101.5,143.5C 101.907,144.762 102.24,146.095 102.5,147.5C 101.975,148.192 101.308,148.692 100.5,149C 101.126,149.75 101.626,150.584 102,151.5C 102.333,151.167 102.667,150.833 103,150.5C 105.481,151.149 105.814,152.149 104,153.5C 100.828,152.003 98.995,153.003 98.5,156.5C 99.8221,156.33 100.989,156.663 102,157.5C 102.308,156.692 102.808,156.025 103.5,155.5C 104.711,156.274 104.711,157.107 103.5,158C 104.951,157.737 106.284,157.904 107.5,158.5C 107.291,159.086 106.957,159.586 106.5,160C 104.19,160.497 101.857,160.663 99.5,160.5C 99.5,159.5 99.5,158.5 99.5,157.5C 97.8762,157.36 96.7096,158.027 96,159.5C 94.5822,157.637 92.7489,157.137 90.5,158C 92.7671,159.081 92.9338,160.581 91,162.5C 90.3109,161.643 89.4776,160.977 88.5,160.5C 86.556,161.189 84.556,161.689 82.5,162C 85.4226,162.207 87.2559,163.707 88,166.5C 88.3333,166.167 88.6667,165.833 89,165.5C 90.3988,166.227 91.8988,166.727 93.5,167C 94.7279,168.49 94.7279,169.99 93.5,171.5C 80.1667,171.5 66.8333,171.5 53.5,171.5C 53.5106,169.983 54.1772,168.816 55.5,168C 53.7448,167.28 52.9115,166.113 53,164.5C 55.9647,164.181 58.7981,162.848 61.5,160.5C 59.1442,159.706 56.8109,160.039 54.5,161.5C 53.2655,159.602 53.5989,157.935 55.5,156.5C 53.4104,153.991 51.5771,154.325 50,157.5C 49.0853,156.672 48.4186,155.672 48,154.5C 47.0754,155.047 46.2421,155.713 45.5,156.5C 46.3928,159.084 46.7261,161.751 46.5,164.5C 45.0695,164.421 43.7362,164.754 42.5,165.5C 41.7568,164.092 40.9234,162.759 40,161.5C 39.3828,162.449 39.5494,163.282 40.5,164C 39.1367,165.945 38.3034,168.112 38,170.5C 37.5,170 37,169.5 36.5,169C 37.731,167.817 37.731,166.651 36.5,165.5C 35.2519,164.96 34.0852,164.293 33,163.5C 31.4748,163.888 29.8082,163.888 28,163.5C 27.0094,164.939 25.676,165.939 24,166.5C 23.5172,165.552 23.3505,164.552 23.5,163.5C 20.4775,163.895 19.4775,162.895 20.5,160.5C 22.4233,159.692 24.4233,159.192 26.5,159C 23.2577,158.717 22.9244,157.883 25.5,156.5C 24.5089,155.335 23.5089,154.168 22.5,153C 23.4239,151.85 23.4239,150.85 22.5,150C 25.3357,150.882 28.3357,151.715 31.5,152.5C 32.5,152 33.5,151.5 34.5,151C 32.6061,149.899 31.9394,148.566 32.5,147C 28.8484,146.501 25.1817,146.335 21.5,146.5C 21.6495,145.448 21.4828,144.448 21,143.5C 20.2904,144.973 19.1238,145.64 17.5,145.5C 17.3905,148.534 16.0572,149.534 13.5,148.5C 12.2054,149.098 10.8721,149.598 9.5,150C 8.16667,150.667 8.16667,151.333 9.5,152C 7.86586,152.494 6.19919,152.66 4.5,152.5C 4.66997,151.178 4.33663,150.011 3.5,149C 5.70056,147.957 8.03389,147.123 10.5,146.5C 11.1667,145.5 11.8333,144.5 12.5,143.5C 8.85388,139.967 5.18721,139.801 1.5,143C 2.83333,143.333 4.16667,143.667 5.5,144C 3.57952,145.122 1.57952,145.956 -0.5,146.5C -0.5,136.833 -0.5,127.167 -0.5,117.5 Z"/></g>
<g><path style="opacity:1" fill="#4e5256" d="M 99.5,130.5 C 100.167,132.833 100.833,135.167 101.5,137.5C 100.488,138.872 99.4884,140.205 98.5,141.5C 98.1583,140.662 97.4916,140.328 96.5,140.5C 96.5,140.167 96.5,139.833 96.5,139.5C 97.4584,139.047 98.2917,138.381 99,137.5C 99.4966,135.19 99.6633,132.857 99.5,130.5 Z"/></g>
<g><path style="opacity:1" fill="#131e24" d="M 96.5,140.5 C 97.4916,140.328 98.1583,140.662 98.5,141.5C 97.7101,142.794 96.7101,143.961 95.5,145C 88.9414,147.217 84.9414,145.051 83.5,138.5C 87.2001,138.921 90.8667,139.588 94.5,140.5C 94.0233,141.478 93.3567,142.311 92.5,143C 94.4122,143.279 95.7456,142.446 96.5,140.5 Z"/></g>
<g><path style="opacity:1" fill="#01141f" d="M 53.5,171.5 C 35.5,171.5 17.5,171.5 -0.5,171.5C -0.5,163.167 -0.5,154.833 -0.5,146.5C 1.57952,145.956 3.57952,145.122 5.5,144C 4.16667,143.667 2.83333,143.333 1.5,143C 5.18721,139.801 8.85388,139.967 12.5,143.5C 11.8333,144.5 11.1667,145.5 10.5,146.5C 8.03389,147.123 5.70056,147.957 3.5,149C 4.33663,150.011 4.66997,151.178 4.5,152.5C 6.19919,152.66 7.86586,152.494 9.5,152C 8.16667,151.333 8.16667,150.667 9.5,150C 10.8721,149.598 12.2054,149.098 13.5,148.5C 16.0572,149.534 17.3905,148.534 17.5,145.5C 19.1238,145.64 20.2904,144.973 21,143.5C 21.4828,144.448 21.6495,145.448 21.5,146.5C 25.1817,146.335 28.8484,146.501 32.5,147C 31.9394,148.566 32.6061,149.899 34.5,151C 33.5,151.5 32.5,152 31.5,152.5C 28.3357,151.715 25.3357,150.882 22.5,150C 23.4239,150.85 23.4239,151.85 22.5,153C 23.5089,154.168 24.5089,155.335 25.5,156.5C 22.9244,157.883 23.2577,158.717 26.5,159C 24.4233,159.192 22.4233,159.692 20.5,160.5C 19.4775,162.895 20.4775,163.895 23.5,163.5C 23.3505,164.552 23.5172,165.552 24,166.5C 25.676,165.939 27.0094,164.939 28,163.5C 29.8082,163.888 31.4748,163.888 33,163.5C 34.0852,164.293 35.2519,164.96 36.5,165.5C 37.731,166.651 37.731,167.817 36.5,169C 37,169.5 37.5,170 38,170.5C 38.3034,168.112 39.1367,165.945 40.5,164C 39.5494,163.282 39.3828,162.449 40,161.5C 40.9234,162.759 41.7568,164.092 42.5,165.5C 43.7362,164.754 45.0695,164.421 46.5,164.5C 46.7261,161.751 46.3928,159.084 45.5,156.5C 46.2421,155.713 47.0754,155.047 48,154.5C 48.4186,155.672 49.0853,156.672 50,157.5C 51.5771,154.325 53.4104,153.991 55.5,156.5C 53.5989,157.935 53.2655,159.602 54.5,161.5C 56.8109,160.039 59.1442,159.706 61.5,160.5C 58.7981,162.848 55.9647,164.181 53,164.5C 52.9115,166.113 53.7448,167.28 55.5,168C 54.1772,168.816 53.5106,169.983 53.5,171.5 Z"/></g>
</svg>
